<svg xmlns="http://www.w3.org/2000/svg" viewBox="0 0 484.26 161.55"><defs><style>.cls-1{fill:#2f58f2;}</style></defs><title>Logo_Horizontal</title><g id="Capa_2" data-name="Capa 2"><g id="Capa_1-2" data-name="Capa 1"><path d="M170.49,3.39l0-.39-.26-3-2.43,1.45-.49.29L126,26.36l-1,.58-2.26-.52L94.58,20,87.74,18.4,80.89,20,52.71,26.42l-2.26.52-1-.58L8.21,1.74l-.49-.29L5.29,0,5,3l0,.39L0,58.69l12.33,57.89.2,1,1.41,2.93,10.11,21.2.86,1.79,1.35.38,56,16.12,5.52,1.59L93.25,160l56-16.12,1.34-.38.86-1.79,10.12-21.2,1.4-2.93.2-1,12.33-57.89ZM166.05,6,142.34,69.57l-15.23-40.3ZM51.41,29.86l36.33-8.33,36.32,8.33,16.49,43.63-35.79,33.69-.5.47h-33l-.51-.47L34.92,73.49ZM101,110.71l-11.91,11.2-1.37,1.28-1.38-1.28-11.9-11.2ZM48.37,29.27,33.13,69.57,9.43,6ZM3.09,58.5,7.49,9.61l24,64.24-17,38Zm12.47,58.37L33.64,76.49,68.21,109,26.56,139.81Zm72.18,41.5L29.36,141.55l41.12-30.4,15.88,15v9.22l-4.64,3.76-10.58-5.54-1.41,2.73,12.35,6.44,5.66-4.57,5.65,4.57,12.35-6.44-1.41-2.73-10.57,5.54-4.65-3.76v-9.22l15.88-15,41.13,30.4Zm61.17-18.56L107.27,109l34.57-32.54,18.08,40.38Zm12.12-28-17-38L168,9.61l4.4,48.89Z"/><path d="M241.2,37.18V45h13.71v8H241.2v8.21h16v7.94h-24V29.31h24v7.87Z"/><path d="M295.3,49.24c0,12.32-7.84,19.82-20.69,19.82H263.05V29.34l11.56,0C287.46,29.29,295.3,36.83,295.3,49.24Zm-8.06,0c0-7.44-4.79-12-12.65-12H271V61.1h3.65C282.48,61.1,287.24,56.61,287.24,49.21Z"/><path d="M300.14,53.83V29.31h8V53.8a7.3,7.3,0,1,0,14.59,0V29.31h8V53.83a15.34,15.34,0,0,1-30.67,0Z"/><path d="M357.84,63.51H341.93l-2.54,5.55h-8.63l19-40.73H350l19,40.73h-8.66Zm-3.11-6.8L349.9,46.08,345,56.71Z"/><path d="M393.64,69.06,381,50.27V69.06h-8l0-39.75h13c7.42,0,13.51,5.72,13.51,12.87a11.65,11.65,0,0,1-7.35,11.08l11.3,15.8ZM381,47.21l5.13,0a5,5,0,1,0,0-10H381Z"/><path d="M439.46,49.24c0,12.32-7.84,19.82-20.69,19.82H407.21V29.34l11.56,0C431.62,29.29,439.46,36.83,439.46,49.24Zm-8.07,0c0-7.44-4.78-12-12.64-12h-3.58V61.1h3.65C426.64,61.1,431.39,56.61,431.39,49.21Z"/><path d="M442.91,48.35a20.68,20.68,0,1,1,20.64,20.7A20.81,20.81,0,0,1,442.91,48.35Zm33.26-.05a12.6,12.6,0,1,0-12.62,12.62A12.68,12.68,0,0,0,476.17,48.3Z"/><path class="cls-1" d="M233.22,113.21A21,21,0,0,1,253.86,92.5c5.18.07,9.76,2.12,13.93,6.14l-4.61,6.29a13.54,13.54,0,0,0-9.4-4.29,12.59,12.59,0,0,0,0,25.17c3.65,0,6.81-2,9.44-4.54l4.59,6.46c-3.5,3.48-7.77,6.09-13.78,6.09A20.85,20.85,0,0,1,233.22,113.21Z"/><path class="cls-1" d="M296.42,128.37h-15.9L278,134.05h-8.63l19-41.72h.25l19,41.72h-8.66Zm-3.11-7-4.83-10.89-4.86,10.89Z"/><path class="cls-1" d="M310.26,126.37l6.38-4.51a8.39,8.39,0,0,0,7.72,4.11c3.75,0,6.26-1.53,6.26-3.66,0-2.93-4.75-5.23-8.92-7.31-4.46-2.23-9.37-4.68-9.37-11,0-6.92,5.82-11.47,13.12-11.47,5.42,0,9.91,2.25,11.71,7.08l-5.89,4.14a6.13,6.13,0,0,0-5.7-3.34c-3,0-5.2,1.73-5.2,3.79,0,2.37,3,3.19,7.57,5.35,6.58,3.12,10.72,6.49,10.72,12.63,0,7.29-5.92,11.92-14.42,11.92C317.73,134.05,312.92,131.33,310.26,126.37Z"/><path class="cls-1" d="M368.65,101.45h-9.77v32.6h-8v-32.6h-9.79V93.34h27.57Z"/><path class="cls-1" d="M374.14,93.34h8v40.71h-8Z"/><path class="cls-1" d="M414,125.92v8.13H390V93.34h8v32.58Z"/><path class="cls-1" d="M442.45,125.92v8.13h-24V93.34h8v32.58Z"/><path class="cls-1" d="M473.08,128.37h-15.9l-2.54,5.68H446l19-41.72h.24l19,41.72H475.6Zm-3.1-7-4.84-10.89-4.85,10.89Z"/></g></g></svg>