<?xml version="1.0" encoding="UTF-8"?>
<svg id="Capa_2" data-name="Capa 2" xmlns="http://www.w3.org/2000/svg" viewBox="0 0 634.95 661.71">
  <defs>
    <style>
      .cls-1 {
        fill: #fff;
      }

      .cls-2 {
        opacity: .5;
      }

      .cls-3 {
        fill: #09c492;
      }
    </style>
  </defs>
  <g id="Object">
    <g>
      <!-- <g>
        <path class="cls-3" d="M175.89,89.35L24.49,351.57l151.39,262.21H478.68l151.39-262.21L478.68,89.35H175.89ZM476.1,609.31H178.48L29.67,351.57,178.48,93.82H476.1l148.81,257.75-148.81,257.74Z"/>
        <path class="cls-3" d="M318.47,54.52L65.62,210.69l8.82,297.04,261.66,140.89,252.85-156.17-8.82-297.04L318.47,54.52Zm17.23,580.32L86.18,500.49l-8.41-283.27L318.87,68.3l249.52,134.35,8.41,283.27-241.1,148.92Z"/>
      </g> -->
      <circle class="cls-3" cx="420.57" cy="18.86" r="18.86"/>
      <circle class="cls-3" cx="244.86" cy="654.86" r="6.86"/>
      <circle class="cls-1" cx="4.86" cy="279.43" r="4.86"/>
      <polygon class="cls-1" points="115.71 99.5 125.43 82.68 106 82.68 115.71 99.5"/>
      <polygon class="cls-1" points="535.86 565.15 555.24 563.75 544.33 547.67 535.86 565.15"/>
      <polygon class="cls-3" points="625.24 276.36 634.95 259.53 615.52 259.53 625.24 276.36"/>
      <polygon class="cls-1" points="625.24 118.5 615.52 135.32 634.95 135.32 625.24 118.5"/>
      <g class="cls-2">
        <rect class="cls-3" x="624.86" y="138.43" width=".75" height="113.14"/>
      </g>
    </g>
  </g>
</svg>