<svg xmlns="http://www.w3.org/2000/svg" viewBox="0 0 732.64 677.51"><defs><style>.cls-1{fill:#fff;}.cls-2{fill:#2f58f2;}</style></defs><title>Fabicon</title><g id="Capa_2" data-name="Capa 2"><g id="Capa_1-2" data-name="Capa 1"><path class="cls-1" d="M712,19.58,710.24,0,695.4,8.86l-172.64,103-2.83,1.68L395.41,85.05l-29.09-6.69-29.09,6.69L220.7,111.72l-8,1.83-2.83-1.68L39.26,10.06,22.4,0,0,248.74,51.1,488.6,52,493l6,12.52,41.83,87.65,4.22,8.82,7.07,2,231.41,66.67,23.78,6.85L621.5,604l7.08-2,46-96.47,6-12.52.9-4.37,51-239.37.11-.52ZM683.35,38.94,592.08,283.56,533.41,128.39Zm-464.63,93.4L366.32,98.5l147.6,33.84,66.69,176.47L434.32,446.48l-1.08,1H299.4L152,308.81ZM421.23,463.63,372,510l-5.69,5.31L360.63,510l-49.22-46.32Zm-222-335.24L140.56,283.56,49.29,38.94ZM19.83,247.56,36.61,61.27l93.26,249.82L64.44,457.15ZM71.72,489.05l72.09-161,136.3,128.29L114.69,578.62Zm294.6,168L132.71,589.75,294.7,470l62.43,58.82v34.92l-16.12,13L296.2,553.37l-9,17.47,56.18,29.34,23-18.56,23,18.56,56.18-29.34-9-17.47-44.81,23.44-16.12-13V528.84L437.94,470l162,119.73ZM618,578.62,452.53,456.36l136.3-128.29,72.09,161ZM668.2,457.15,602.77,311.09,696,61.27l16.78,186.29Z"/><polygon class="cls-2" points="683.35 38.94 592.08 283.56 533.41 128.39 683.35 38.94"/><polygon class="cls-2" points="712.81 247.56 668.2 457.15 602.77 311.09 696.03 61.27 712.81 247.56"/><polygon class="cls-2" points="660.92 489.05 617.95 578.62 452.53 456.36 588.83 328.07 660.92 489.05"/><polygon class="cls-2" points="599.93 589.75 366.32 657.08 132.71 589.75 294.7 470.02 357.13 528.84 357.13 563.76 341.01 576.81 296.2 553.37 287.17 570.84 343.35 600.18 366.32 581.62 389.29 600.18 445.47 570.84 436.44 553.37 391.63 576.81 375.51 563.76 375.51 528.84 437.94 470.02 599.93 589.75"/><polygon class="cls-2" points="421.23 463.63 372.01 509.95 366.32 515.26 360.63 509.95 311.41 463.63 421.23 463.63"/><polygon class="cls-2" points="280.11 456.36 114.69 578.62 71.72 489.05 143.81 328.07 280.11 456.36"/><polygon class="cls-2" points="580.61 308.81 434.32 446.48 433.24 447.49 299.4 447.49 152.03 308.81 218.72 132.34 366.32 98.5 513.92 132.34 580.61 308.81"/><polygon class="cls-2" points="129.87 311.09 64.44 457.15 19.83 247.56 36.61 61.27 129.87 311.09"/><polygon class="cls-2" points="199.23 128.39 140.56 283.56 49.29 38.94 199.23 128.39"/></g></g></svg>